<svg xmlns="http://www.w3.org/2000/svg" width="720" height="602" font-family="-apple-system,Segoe UI,Helvetica,Arial,sans-serif" font-size="11">
<rect width="100%" height="100%" fill="#ffffff"/>
<text x="56" y="18" font-size="14" font-weight="600" fill="#111827">expo ios</text>
<circle cx="490" cy="14" r="4" fill="#2563eb"/><text x="498" y="18" fill="#374151">ours (maestro-runner)</text><circle cx="625" cy="14" r="4" fill="#9ca3af"/><text x="633" y="18" fill="#374151">upstream</text>
<text x="56" y="34" fill="#374151" font-weight="600">Test time per run (min, median)</text>
<line x1="56" x2="704" y1="190.0" y2="190.0" stroke="#e5e7eb"/><text x="50" y="194.0" text-anchor="end" fill="#6b7280">0</text>
<line x1="56" x2="704" y1="152.5" y2="152.5" stroke="#e5e7eb"/><text x="50" y="156.5" text-anchor="end" fill="#6b7280">12</text>
<line x1="56" x2="704" y1="115.0" y2="115.0" stroke="#e5e7eb"/><text x="50" y="119.0" text-anchor="end" fill="#6b7280">25</text>
<line x1="56" x2="704" y1="77.5" y2="77.5" stroke="#e5e7eb"/><text x="50" y="81.5" text-anchor="end" fill="#6b7280">38</text>
<line x1="56" x2="704" y1="40.0" y2="40.0" stroke="#e5e7eb"/><text x="50" y="44.0" text-anchor="end" fill="#6b7280">50</text>
<polyline fill="none" stroke="#9ca3af" stroke-width="2" points="56.0,150.7 63.8,151.0 95.0,142.0 102.8,145.6 110.7,145.3 126.3,142.6 134.1,154.6 141.9,153.1 446.4,103.3 454.2,137.5 469.8,111.4 477.6,106.0 493.2,167.5 547.9,158.5 555.7,153.7 563.5,154.6 571.3,161.8 579.1,148.3 594.7,134.5 602.5,130.9 610.3,141.7 618.1,148.3 625.9,138.7 641.5,137.8 649.3,148.3 657.2,137.5 665.0,145.9 672.8,140.8 680.6,132.4"/>
<circle cx="56.0" cy="150.7" r="3.5" fill="#9ca3af"><title>2026-07-15 upstream: 13 (1 runs)</title></circle>
<circle cx="63.8" cy="151.0" r="3.5" fill="#9ca3af"><title>2026-07-16 upstream: 13 (1 runs)</title></circle>
<circle cx="95.0" cy="142.0" r="3.5" fill="#9ca3af"><title>2026-07-20 upstream: 16 (2 runs)</title></circle>
<circle cx="102.8" cy="145.6" r="3.5" fill="#9ca3af"><title>2026-07-21 upstream: 15 (2 runs)</title></circle>
<circle cx="110.7" cy="145.3" r="3.5" fill="#9ca3af"><title>2026-07-22 upstream: 15 (3 runs)</title></circle>
<circle cx="126.3" cy="142.6" r="3.5" fill="#9ca3af"><title>2026-07-24 upstream: 16 (1 runs)</title></circle>
<circle cx="134.1" cy="154.6" r="3.5" fill="#9ca3af"><title>2026-07-25 upstream: 12 (1 runs)</title></circle>
<circle cx="141.9" cy="153.1" r="3.5" fill="#9ca3af"><title>2026-07-26 upstream: 12 (1 runs)</title></circle>
<circle cx="446.4" cy="103.3" r="3.5" fill="#9ca3af"><title>2026-09-03 upstream: 29 (1 runs)</title></circle>
<circle cx="454.2" cy="137.5" r="3.5" fill="#9ca3af"><title>2026-09-04 upstream: 18 (1 runs)</title></circle>
<circle cx="469.8" cy="111.4" r="3.5" fill="#9ca3af"><title>2026-09-06 upstream: 26 (2 runs)</title></circle>
<circle cx="477.6" cy="106.0" r="3.5" fill="#9ca3af"><title>2026-09-07 upstream: 28 (1 runs)</title></circle>
<circle cx="493.2" cy="167.5" r="3.5" fill="#9ca3af"><title>2026-09-09 upstream: 7.5 (1 runs)</title></circle>
<circle cx="547.9" cy="158.5" r="3.5" fill="#9ca3af"><title>2026-09-16 upstream: 10 (1 runs)</title></circle>
<circle cx="555.7" cy="153.7" r="3.5" fill="#9ca3af"><title>2026-09-17 upstream: 12 (1 runs)</title></circle>
<circle cx="563.5" cy="154.6" r="3.5" fill="#9ca3af"><title>2026-09-18 upstream: 12 (2 runs)</title></circle>
<circle cx="571.3" cy="161.8" r="3.5" fill="#9ca3af"><title>2026-09-19 upstream: 9.4 (1 runs)</title></circle>
<circle cx="579.1" cy="148.3" r="3.5" fill="#9ca3af"><title>2026-09-20 upstream: 14 (1 runs)</title></circle>
<circle cx="594.7" cy="134.5" r="3.5" fill="#9ca3af"><title>2026-09-22 upstream: 18 (2 runs)</title></circle>
<circle cx="602.5" cy="130.9" r="3.5" fill="#9ca3af"><title>2026-09-23 upstream: 20 (1 runs)</title></circle>
<circle cx="610.3" cy="141.7" r="3.5" fill="#9ca3af"><title>2026-09-24 upstream: 16 (2 runs)</title></circle>
<circle cx="618.1" cy="148.3" r="3.5" fill="#9ca3af"><title>2026-09-25 upstream: 14 (2 runs)</title></circle>
<circle cx="625.9" cy="138.7" r="3.5" fill="#9ca3af"><title>2026-09-26 upstream: 17 (1 runs)</title></circle>
<circle cx="641.5" cy="137.8" r="3.5" fill="#9ca3af"><title>2026-09-28 upstream: 17 (3 runs)</title></circle>
<circle cx="649.3" cy="148.3" r="3.5" fill="#9ca3af"><title>2026-09-29 upstream: 14 (1 runs)</title></circle>
<circle cx="657.2" cy="137.5" r="3.5" fill="#9ca3af"><title>2026-09-30 upstream: 18 (2 runs)</title></circle>
<circle cx="665.0" cy="145.9" r="3.5" fill="#9ca3af"><title>2026-10-01 upstream: 15 (1 runs)</title></circle>
<circle cx="672.8" cy="140.8" r="3.5" fill="#9ca3af"><title>2026-10-02 upstream: 16 (2 runs)</title></circle>
<circle cx="680.6" cy="132.4" r="3.5" fill="#9ca3af"><title>2026-10-03 upstream: 19 (2 runs)</title></circle>
<polyline fill="none" stroke="#2563eb" stroke-width="2" points="672.8,160.3 680.6,162.1 688.4,161.2 696.2,155.8 704.0,158.8"/>
<circle cx="672.8" cy="160.3" r="3.5" fill="#2563eb"><title>2026-10-02 ours: 9.9 (2 runs)</title></circle>
<circle cx="680.6" cy="162.1" r="3.5" fill="#2563eb"><title>2026-10-03 ours: 9.3 (2 runs)</title></circle>
<circle cx="688.4" cy="161.2" r="3.5" fill="#2563eb"><title>2026-10-04 ours: 9.6 (1 runs)</title></circle>
<circle cx="696.2" cy="155.8" r="3.5" fill="#2563eb"><title>2026-10-05 ours: 11 (6 runs)</title></circle>
<circle cx="704.0" cy="158.8" r="3.5" fill="#2563eb"><title>2026-10-06 ours: 10 (1 runs)</title></circle>
<text x="56" y="218" fill="#374151" font-weight="600">Runs where every flow passed first time (%)</text>
<line x1="56" x2="704" y1="374.0" y2="374.0" stroke="#e5e7eb"/><text x="50" y="378.0" text-anchor="end" fill="#6b7280">0</text>
<line x1="56" x2="704" y1="336.5" y2="336.5" stroke="#e5e7eb"/><text x="50" y="340.5" text-anchor="end" fill="#6b7280">25</text>
<line x1="56" x2="704" y1="299.0" y2="299.0" stroke="#e5e7eb"/><text x="50" y="303.0" text-anchor="end" fill="#6b7280">50</text>
<line x1="56" x2="704" y1="261.5" y2="261.5" stroke="#e5e7eb"/><text x="50" y="265.5" text-anchor="end" fill="#6b7280">75</text>
<line x1="56" x2="704" y1="224.0" y2="224.0" stroke="#e5e7eb"/><text x="50" y="228.0" text-anchor="end" fill="#6b7280">100</text>
<polyline fill="none" stroke="#9ca3af" stroke-width="2" points="56.0,224.0 63.8,224.0 95.0,374.0 102.8,299.0 110.7,224.0 126.3,224.0 134.1,224.0 141.9,374.0 446.4,374.0 454.2,374.0 469.8,374.0 477.6,374.0 493.2,224.0 547.9,224.0 555.7,374.0 563.5,299.0 571.3,224.0 579.1,224.0 594.7,374.0 602.5,374.0 610.3,299.0 618.1,224.0 625.9,374.0 641.5,324.5 649.3,224.0 657.2,224.0 665.0,224.0 672.8,299.0 680.6,374.0"/>
<circle cx="56.0" cy="224.0" r="3.5" fill="#9ca3af"><title>2026-07-15 upstream: 100 (1 runs)</title></circle>
<circle cx="63.8" cy="224.0" r="3.5" fill="#9ca3af"><title>2026-07-16 upstream: 100 (1 runs)</title></circle>
<circle cx="95.0" cy="374.0" r="3.5" fill="#9ca3af"><title>2026-07-20 upstream: 0 (2 runs)</title></circle>
<circle cx="102.8" cy="299.0" r="3.5" fill="#9ca3af"><title>2026-07-21 upstream: 50 (2 runs)</title></circle>
<circle cx="110.7" cy="224.0" r="3.5" fill="#9ca3af"><title>2026-07-22 upstream: 100 (3 runs)</title></circle>
<circle cx="126.3" cy="224.0" r="3.5" fill="#9ca3af"><title>2026-07-24 upstream: 100 (1 runs)</title></circle>
<circle cx="134.1" cy="224.0" r="3.5" fill="#9ca3af"><title>2026-07-25 upstream: 100 (1 runs)</title></circle>
<circle cx="141.9" cy="374.0" r="3.5" fill="#9ca3af"><title>2026-07-26 upstream: 0 (1 runs)</title></circle>
<circle cx="446.4" cy="374.0" r="3.5" fill="#9ca3af"><title>2026-09-03 upstream: 0 (1 runs)</title></circle>
<circle cx="454.2" cy="374.0" r="3.5" fill="#9ca3af"><title>2026-09-04 upstream: 0 (1 runs)</title></circle>
<circle cx="469.8" cy="374.0" r="3.5" fill="#9ca3af"><title>2026-09-06 upstream: 0 (2 runs)</title></circle>
<circle cx="477.6" cy="374.0" r="3.5" fill="#9ca3af"><title>2026-09-07 upstream: 0 (1 runs)</title></circle>
<circle cx="493.2" cy="224.0" r="3.5" fill="#9ca3af"><title>2026-09-09 upstream: 100 (1 runs)</title></circle>
<circle cx="547.9" cy="224.0" r="3.5" fill="#9ca3af"><title>2026-09-16 upstream: 100 (1 runs)</title></circle>
<circle cx="555.7" cy="374.0" r="3.5" fill="#9ca3af"><title>2026-09-17 upstream: 0 (1 runs)</title></circle>
<circle cx="563.5" cy="299.0" r="3.5" fill="#9ca3af"><title>2026-09-18 upstream: 50 (2 runs)</title></circle>
<circle cx="571.3" cy="224.0" r="3.5" fill="#9ca3af"><title>2026-09-19 upstream: 100 (1 runs)</title></circle>
<circle cx="579.1" cy="224.0" r="3.5" fill="#9ca3af"><title>2026-09-20 upstream: 100 (1 runs)</title></circle>
<circle cx="594.7" cy="374.0" r="3.5" fill="#9ca3af"><title>2026-09-22 upstream: 0 (2 runs)</title></circle>
<circle cx="602.5" cy="374.0" r="3.5" fill="#9ca3af"><title>2026-09-23 upstream: 0 (1 runs)</title></circle>
<circle cx="610.3" cy="299.0" r="3.5" fill="#9ca3af"><title>2026-09-24 upstream: 50 (2 runs)</title></circle>
<circle cx="618.1" cy="224.0" r="3.5" fill="#9ca3af"><title>2026-09-25 upstream: 100 (2 runs)</title></circle>
<circle cx="625.9" cy="374.0" r="3.5" fill="#9ca3af"><title>2026-09-26 upstream: 0 (1 runs)</title></circle>
<circle cx="641.5" cy="324.5" r="3.5" fill="#9ca3af"><title>2026-09-28 upstream: 33 (3 runs)</title></circle>
<circle cx="649.3" cy="224.0" r="3.5" fill="#9ca3af"><title>2026-09-29 upstream: 100 (1 runs)</title></circle>
<circle cx="657.2" cy="224.0" r="3.5" fill="#9ca3af"><title>2026-09-30 upstream: 100 (2 runs)</title></circle>
<circle cx="665.0" cy="224.0" r="3.5" fill="#9ca3af"><title>2026-10-01 upstream: 100 (1 runs)</title></circle>
<circle cx="672.8" cy="299.0" r="3.5" fill="#9ca3af"><title>2026-10-02 upstream: 50 (2 runs)</title></circle>
<circle cx="680.6" cy="374.0" r="3.5" fill="#9ca3af"><title>2026-10-03 upstream: 0 (2 runs)</title></circle>
<polyline fill="none" stroke="#2563eb" stroke-width="2" points="672.8,374.0 680.6,374.0 688.4,224.0 696.2,249.5 704.0,224.0"/>
<circle cx="672.8" cy="374.0" r="3.5" fill="#2563eb"><title>2026-10-02 ours: 0 (2 runs)</title></circle>
<circle cx="680.6" cy="374.0" r="3.5" fill="#2563eb"><title>2026-10-03 ours: 0 (2 runs)</title></circle>
<circle cx="688.4" cy="224.0" r="3.5" fill="#2563eb"><title>2026-10-04 ours: 100 (1 runs)</title></circle>
<circle cx="696.2" cy="249.5" r="3.5" fill="#2563eb"><title>2026-10-05 ours: 83 (6 runs)</title></circle>
<circle cx="704.0" cy="224.0" r="3.5" fill="#2563eb"><title>2026-10-06 ours: 100 (1 runs)</title></circle>
<text x="56" y="402" fill="#374151" font-weight="600">Flows that failed at least once, per run</text>
<line x1="56" x2="704" y1="558.0" y2="558.0" stroke="#e5e7eb"/><text x="50" y="562.0" text-anchor="end" fill="#6b7280">0</text>
<line x1="56" x2="704" y1="520.5" y2="520.5" stroke="#e5e7eb"/><text x="50" y="524.5" text-anchor="end" fill="#6b7280">1.2</text>
<line x1="56" x2="704" y1="483.0" y2="483.0" stroke="#e5e7eb"/><text x="50" y="487.0" text-anchor="end" fill="#6b7280">2.5</text>
<line x1="56" x2="704" y1="445.5" y2="445.5" stroke="#e5e7eb"/><text x="50" y="449.5" text-anchor="end" fill="#6b7280">3.8</text>
<line x1="56" x2="704" y1="408.0" y2="408.0" stroke="#e5e7eb"/><text x="50" y="412.0" text-anchor="end" fill="#6b7280">5</text>
<polyline fill="none" stroke="#9ca3af" stroke-width="2" points="56.0,558.0 63.8,558.0 95.0,513.0 102.8,498.0 110.7,558.0 126.3,558.0 134.1,558.0 141.9,498.0 446.4,528.0 454.2,438.0 469.8,528.0 477.6,468.0 493.2,558.0 547.9,558.0 555.7,528.0 563.5,543.0 571.3,558.0 579.1,558.0 594.7,528.0 602.5,498.0 610.3,543.0 618.1,558.0 625.9,528.0 641.5,537.9 649.3,558.0 657.2,558.0 665.0,558.0 672.8,543.0 680.6,483.0"/>
<circle cx="56.0" cy="558.0" r="3.5" fill="#9ca3af"><title>2026-07-15 upstream: 0 (1 runs)</title></circle>
<circle cx="63.8" cy="558.0" r="3.5" fill="#9ca3af"><title>2026-07-16 upstream: 0 (1 runs)</title></circle>
<circle cx="95.0" cy="513.0" r="3.5" fill="#9ca3af"><title>2026-07-20 upstream: 1.5 (2 runs)</title></circle>
<circle cx="102.8" cy="498.0" r="3.5" fill="#9ca3af"><title>2026-07-21 upstream: 2 (2 runs)</title></circle>
<circle cx="110.7" cy="558.0" r="3.5" fill="#9ca3af"><title>2026-07-22 upstream: 0 (3 runs)</title></circle>
<circle cx="126.3" cy="558.0" r="3.5" fill="#9ca3af"><title>2026-07-24 upstream: 0 (1 runs)</title></circle>
<circle cx="134.1" cy="558.0" r="3.5" fill="#9ca3af"><title>2026-07-25 upstream: 0 (1 runs)</title></circle>
<circle cx="141.9" cy="498.0" r="3.5" fill="#9ca3af"><title>2026-07-26 upstream: 2 (1 runs)</title></circle>
<circle cx="446.4" cy="528.0" r="3.5" fill="#9ca3af"><title>2026-09-03 upstream: 1 (1 runs)</title></circle>
<circle cx="454.2" cy="438.0" r="3.5" fill="#9ca3af"><title>2026-09-04 upstream: 4 (1 runs)</title></circle>
<circle cx="469.8" cy="528.0" r="3.5" fill="#9ca3af"><title>2026-09-06 upstream: 1 (2 runs)</title></circle>
<circle cx="477.6" cy="468.0" r="3.5" fill="#9ca3af"><title>2026-09-07 upstream: 3 (1 runs)</title></circle>
<circle cx="493.2" cy="558.0" r="3.5" fill="#9ca3af"><title>2026-09-09 upstream: 0 (1 runs)</title></circle>
<circle cx="547.9" cy="558.0" r="3.5" fill="#9ca3af"><title>2026-09-16 upstream: 0 (1 runs)</title></circle>
<circle cx="555.7" cy="528.0" r="3.5" fill="#9ca3af"><title>2026-09-17 upstream: 1 (1 runs)</title></circle>
<circle cx="563.5" cy="543.0" r="3.5" fill="#9ca3af"><title>2026-09-18 upstream: 0.5 (2 runs)</title></circle>
<circle cx="571.3" cy="558.0" r="3.5" fill="#9ca3af"><title>2026-09-19 upstream: 0 (1 runs)</title></circle>
<circle cx="579.1" cy="558.0" r="3.5" fill="#9ca3af"><title>2026-09-20 upstream: 0 (1 runs)</title></circle>
<circle cx="594.7" cy="528.0" r="3.5" fill="#9ca3af"><title>2026-09-22 upstream: 1 (2 runs)</title></circle>
<circle cx="602.5" cy="498.0" r="3.5" fill="#9ca3af"><title>2026-09-23 upstream: 2 (1 runs)</title></circle>
<circle cx="610.3" cy="543.0" r="3.5" fill="#9ca3af"><title>2026-09-24 upstream: 0.5 (2 runs)</title></circle>
<circle cx="618.1" cy="558.0" r="3.5" fill="#9ca3af"><title>2026-09-25 upstream: 0 (2 runs)</title></circle>
<circle cx="625.9" cy="528.0" r="3.5" fill="#9ca3af"><title>2026-09-26 upstream: 1 (1 runs)</title></circle>
<circle cx="641.5" cy="537.9" r="3.5" fill="#9ca3af"><title>2026-09-28 upstream: 0.7 (3 runs)</title></circle>
<circle cx="649.3" cy="558.0" r="3.5" fill="#9ca3af"><title>2026-09-29 upstream: 0 (1 runs)</title></circle>
<circle cx="657.2" cy="558.0" r="3.5" fill="#9ca3af"><title>2026-09-30 upstream: 0 (2 runs)</title></circle>
<circle cx="665.0" cy="558.0" r="3.5" fill="#9ca3af"><title>2026-10-01 upstream: 0 (1 runs)</title></circle>
<circle cx="672.8" cy="543.0" r="3.5" fill="#9ca3af"><title>2026-10-02 upstream: 0.5 (2 runs)</title></circle>
<circle cx="680.6" cy="483.0" r="3.5" fill="#9ca3af"><title>2026-10-03 upstream: 2.5 (2 runs)</title></circle>
<polyline fill="none" stroke="#2563eb" stroke-width="2" points="672.8,528.0 680.6,528.0 688.4,558.0 696.2,552.9 704.0,558.0"/>
<circle cx="672.8" cy="528.0" r="3.5" fill="#2563eb"><title>2026-10-02 ours: 1 (2 runs)</title></circle>
<circle cx="680.6" cy="528.0" r="3.5" fill="#2563eb"><title>2026-10-03 ours: 1 (2 runs)</title></circle>
<circle cx="688.4" cy="558.0" r="3.5" fill="#2563eb"><title>2026-10-04 ours: 0 (1 runs)</title></circle>
<circle cx="696.2" cy="552.9" r="3.5" fill="#2563eb"><title>2026-10-05 ours: 0.2 (6 runs)</title></circle>
<circle cx="704.0" cy="558.0" r="3.5" fill="#2563eb"><title>2026-10-06 ours: 0 (1 runs)</title></circle>
<text x="56.0" y="574" text-anchor="middle" fill="#6b7280">07-15</text>
<text x="110.7" y="574" text-anchor="middle" fill="#6b7280">07-22</text>
<text x="446.4" y="574" text-anchor="middle" fill="#6b7280">09-03</text>
<text x="493.2" y="574" text-anchor="middle" fill="#6b7280">09-09</text>
<text x="571.3" y="574" text-anchor="middle" fill="#6b7280">09-19</text>
<text x="610.3" y="574" text-anchor="middle" fill="#6b7280">09-24</text>
<text x="649.3" y="574" text-anchor="middle" fill="#6b7280">09-29</text>
<text x="680.6" y="574" text-anchor="middle" fill="#6b7280">10-03</text>
</svg>
