<svg xmlns="http://www.w3.org/2000/svg" width="720" height="602" font-family="-apple-system,Segoe UI,Helvetica,Arial,sans-serif" font-size="11">
<rect width="100%" height="100%" fill="#ffffff"/>
<text x="56" y="18" font-size="14" font-weight="600" fill="#111827">expo ios</text>
<circle cx="490" cy="14" r="4" fill="#2563eb"/><text x="498" y="18" fill="#374151">ours (maestro-runner)</text><circle cx="625" cy="14" r="4" fill="#9ca3af"/><text x="633" y="18" fill="#374151">upstream</text>
<text x="56" y="34" fill="#374151" font-weight="600">Test time per run (min, median)</text>
<line x1="56" x2="704" y1="190.0" y2="190.0" stroke="#e5e7eb"/><text x="50" y="194.0" text-anchor="end" fill="#6b7280">0</text>
<line x1="56" x2="704" y1="152.5" y2="152.5" stroke="#e5e7eb"/><text x="50" y="156.5" text-anchor="end" fill="#6b7280">12</text>
<line x1="56" x2="704" y1="115.0" y2="115.0" stroke="#e5e7eb"/><text x="50" y="119.0" text-anchor="end" fill="#6b7280">25</text>
<line x1="56" x2="704" y1="77.5" y2="77.5" stroke="#e5e7eb"/><text x="50" y="81.5" text-anchor="end" fill="#6b7280">38</text>
<line x1="56" x2="704" y1="40.0" y2="40.0" stroke="#e5e7eb"/><text x="50" y="44.0" text-anchor="end" fill="#6b7280">50</text>
<polyline fill="none" stroke="#9ca3af" stroke-width="2" points="56.0,131.5 64.6,145.6 73.3,145.3 90.6,142.6 99.2,154.6 107.8,153.1 444.8,103.3 453.4,137.5 470.7,111.4 479.4,106.0 496.6,167.5 557.1,158.5 565.8,153.7 574.4,154.6 583.0,161.8 591.7,148.3 609.0,134.5 617.6,130.9 626.2,141.7 634.9,148.3 643.5,138.7 660.8,137.8 669.4,148.3 678.1,137.5 686.7,145.9 695.4,140.8 704.0,132.4"/>
<circle cx="56.0" cy="131.5" r="3.5" fill="#9ca3af"><title>2026-07-20 upstream: 20 (1 runs)</title></circle>
<circle cx="64.6" cy="145.6" r="3.5" fill="#9ca3af"><title>2026-07-21 upstream: 15 (2 runs)</title></circle>
<circle cx="73.3" cy="145.3" r="3.5" fill="#9ca3af"><title>2026-07-22 upstream: 15 (3 runs)</title></circle>
<circle cx="90.6" cy="142.6" r="3.5" fill="#9ca3af"><title>2026-07-24 upstream: 16 (1 runs)</title></circle>
<circle cx="99.2" cy="154.6" r="3.5" fill="#9ca3af"><title>2026-07-25 upstream: 12 (1 runs)</title></circle>
<circle cx="107.8" cy="153.1" r="3.5" fill="#9ca3af"><title>2026-07-26 upstream: 12 (1 runs)</title></circle>
<circle cx="444.8" cy="103.3" r="3.5" fill="#9ca3af"><title>2026-09-03 upstream: 29 (1 runs)</title></circle>
<circle cx="453.4" cy="137.5" r="3.5" fill="#9ca3af"><title>2026-09-04 upstream: 18 (1 runs)</title></circle>
<circle cx="470.7" cy="111.4" r="3.5" fill="#9ca3af"><title>2026-09-06 upstream: 26 (2 runs)</title></circle>
<circle cx="479.4" cy="106.0" r="3.5" fill="#9ca3af"><title>2026-09-07 upstream: 28 (1 runs)</title></circle>
<circle cx="496.6" cy="167.5" r="3.5" fill="#9ca3af"><title>2026-09-09 upstream: 7.5 (1 runs)</title></circle>
<circle cx="557.1" cy="158.5" r="3.5" fill="#9ca3af"><title>2026-09-16 upstream: 10 (1 runs)</title></circle>
<circle cx="565.8" cy="153.7" r="3.5" fill="#9ca3af"><title>2026-09-17 upstream: 12 (1 runs)</title></circle>
<circle cx="574.4" cy="154.6" r="3.5" fill="#9ca3af"><title>2026-09-18 upstream: 12 (2 runs)</title></circle>
<circle cx="583.0" cy="161.8" r="3.5" fill="#9ca3af"><title>2026-09-19 upstream: 9.4 (1 runs)</title></circle>
<circle cx="591.7" cy="148.3" r="3.5" fill="#9ca3af"><title>2026-09-20 upstream: 14 (1 runs)</title></circle>
<circle cx="609.0" cy="134.5" r="3.5" fill="#9ca3af"><title>2026-09-22 upstream: 18 (2 runs)</title></circle>
<circle cx="617.6" cy="130.9" r="3.5" fill="#9ca3af"><title>2026-09-23 upstream: 20 (1 runs)</title></circle>
<circle cx="626.2" cy="141.7" r="3.5" fill="#9ca3af"><title>2026-09-24 upstream: 16 (2 runs)</title></circle>
<circle cx="634.9" cy="148.3" r="3.5" fill="#9ca3af"><title>2026-09-25 upstream: 14 (2 runs)</title></circle>
<circle cx="643.5" cy="138.7" r="3.5" fill="#9ca3af"><title>2026-09-26 upstream: 17 (1 runs)</title></circle>
<circle cx="660.8" cy="137.8" r="3.5" fill="#9ca3af"><title>2026-09-28 upstream: 17 (3 runs)</title></circle>
<circle cx="669.4" cy="148.3" r="3.5" fill="#9ca3af"><title>2026-09-29 upstream: 14 (1 runs)</title></circle>
<circle cx="678.1" cy="137.5" r="3.5" fill="#9ca3af"><title>2026-09-30 upstream: 18 (2 runs)</title></circle>
<circle cx="686.7" cy="145.9" r="3.5" fill="#9ca3af"><title>2026-10-01 upstream: 15 (1 runs)</title></circle>
<circle cx="695.4" cy="140.8" r="3.5" fill="#9ca3af"><title>2026-10-02 upstream: 16 (2 runs)</title></circle>
<circle cx="704.0" cy="132.4" r="3.5" fill="#9ca3af"><title>2026-10-03 upstream: 19 (2 runs)</title></circle>
<polyline fill="none" stroke="#2563eb" stroke-width="2" points="686.7,167.2 695.4,154.9 704.0,162.1"/>
<circle cx="686.7" cy="167.2" r="3.5" fill="#2563eb"><title>2026-10-01 ours: 7.6 (2 runs)</title></circle>
<circle cx="695.4" cy="154.9" r="3.5" fill="#2563eb"><title>2026-10-02 ours: 12 (4 runs)</title></circle>
<circle cx="704.0" cy="162.1" r="3.5" fill="#2563eb"><title>2026-10-03 ours: 9.3 (2 runs)</title></circle>
<text x="56" y="218" fill="#374151" font-weight="600">Runs where every flow passed first time (%)</text>
<line x1="56" x2="704" y1="374.0" y2="374.0" stroke="#e5e7eb"/><text x="50" y="378.0" text-anchor="end" fill="#6b7280">0</text>
<line x1="56" x2="704" y1="336.5" y2="336.5" stroke="#e5e7eb"/><text x="50" y="340.5" text-anchor="end" fill="#6b7280">25</text>
<line x1="56" x2="704" y1="299.0" y2="299.0" stroke="#e5e7eb"/><text x="50" y="303.0" text-anchor="end" fill="#6b7280">50</text>
<line x1="56" x2="704" y1="261.5" y2="261.5" stroke="#e5e7eb"/><text x="50" y="265.5" text-anchor="end" fill="#6b7280">75</text>
<line x1="56" x2="704" y1="224.0" y2="224.0" stroke="#e5e7eb"/><text x="50" y="228.0" text-anchor="end" fill="#6b7280">100</text>
<polyline fill="none" stroke="#9ca3af" stroke-width="2" points="56.0,374.0 64.6,299.0 73.3,224.0 90.6,224.0 99.2,224.0 107.8,374.0 444.8,374.0 453.4,374.0 470.7,374.0 479.4,374.0 496.6,224.0 557.1,224.0 565.8,374.0 574.4,299.0 583.0,224.0 591.7,224.0 609.0,374.0 617.6,374.0 626.2,299.0 634.9,224.0 643.5,374.0 660.8,324.5 669.4,224.0 678.1,224.0 686.7,224.0 695.4,299.0 704.0,374.0"/>
<circle cx="56.0" cy="374.0" r="3.5" fill="#9ca3af"><title>2026-07-20 upstream: 0 (1 runs)</title></circle>
<circle cx="64.6" cy="299.0" r="3.5" fill="#9ca3af"><title>2026-07-21 upstream: 50 (2 runs)</title></circle>
<circle cx="73.3" cy="224.0" r="3.5" fill="#9ca3af"><title>2026-07-22 upstream: 100 (3 runs)</title></circle>
<circle cx="90.6" cy="224.0" r="3.5" fill="#9ca3af"><title>2026-07-24 upstream: 100 (1 runs)</title></circle>
<circle cx="99.2" cy="224.0" r="3.5" fill="#9ca3af"><title>2026-07-25 upstream: 100 (1 runs)</title></circle>
<circle cx="107.8" cy="374.0" r="3.5" fill="#9ca3af"><title>2026-07-26 upstream: 0 (1 runs)</title></circle>
<circle cx="444.8" cy="374.0" r="3.5" fill="#9ca3af"><title>2026-09-03 upstream: 0 (1 runs)</title></circle>
<circle cx="453.4" cy="374.0" r="3.5" fill="#9ca3af"><title>2026-09-04 upstream: 0 (1 runs)</title></circle>
<circle cx="470.7" cy="374.0" r="3.5" fill="#9ca3af"><title>2026-09-06 upstream: 0 (2 runs)</title></circle>
<circle cx="479.4" cy="374.0" r="3.5" fill="#9ca3af"><title>2026-09-07 upstream: 0 (1 runs)</title></circle>
<circle cx="496.6" cy="224.0" r="3.5" fill="#9ca3af"><title>2026-09-09 upstream: 100 (1 runs)</title></circle>
<circle cx="557.1" cy="224.0" r="3.5" fill="#9ca3af"><title>2026-09-16 upstream: 100 (1 runs)</title></circle>
<circle cx="565.8" cy="374.0" r="3.5" fill="#9ca3af"><title>2026-09-17 upstream: 0 (1 runs)</title></circle>
<circle cx="574.4" cy="299.0" r="3.5" fill="#9ca3af"><title>2026-09-18 upstream: 50 (2 runs)</title></circle>
<circle cx="583.0" cy="224.0" r="3.5" fill="#9ca3af"><title>2026-09-19 upstream: 100 (1 runs)</title></circle>
<circle cx="591.7" cy="224.0" r="3.5" fill="#9ca3af"><title>2026-09-20 upstream: 100 (1 runs)</title></circle>
<circle cx="609.0" cy="374.0" r="3.5" fill="#9ca3af"><title>2026-09-22 upstream: 0 (2 runs)</title></circle>
<circle cx="617.6" cy="374.0" r="3.5" fill="#9ca3af"><title>2026-09-23 upstream: 0 (1 runs)</title></circle>
<circle cx="626.2" cy="299.0" r="3.5" fill="#9ca3af"><title>2026-09-24 upstream: 50 (2 runs)</title></circle>
<circle cx="634.9" cy="224.0" r="3.5" fill="#9ca3af"><title>2026-09-25 upstream: 100 (2 runs)</title></circle>
<circle cx="643.5" cy="374.0" r="3.5" fill="#9ca3af"><title>2026-09-26 upstream: 0 (1 runs)</title></circle>
<circle cx="660.8" cy="324.5" r="3.5" fill="#9ca3af"><title>2026-09-28 upstream: 33 (3 runs)</title></circle>
<circle cx="669.4" cy="224.0" r="3.5" fill="#9ca3af"><title>2026-09-29 upstream: 100 (1 runs)</title></circle>
<circle cx="678.1" cy="224.0" r="3.5" fill="#9ca3af"><title>2026-09-30 upstream: 100 (2 runs)</title></circle>
<circle cx="686.7" cy="224.0" r="3.5" fill="#9ca3af"><title>2026-10-01 upstream: 100 (1 runs)</title></circle>
<circle cx="695.4" cy="299.0" r="3.5" fill="#9ca3af"><title>2026-10-02 upstream: 50 (2 runs)</title></circle>
<circle cx="704.0" cy="374.0" r="3.5" fill="#9ca3af"><title>2026-10-03 upstream: 0 (2 runs)</title></circle>
<polyline fill="none" stroke="#2563eb" stroke-width="2" points="686.7,299.0 695.4,374.0 704.0,374.0"/>
<circle cx="686.7" cy="299.0" r="3.5" fill="#2563eb"><title>2026-10-01 ours: 50 (2 runs)</title></circle>
<circle cx="695.4" cy="374.0" r="3.5" fill="#2563eb"><title>2026-10-02 ours: 0 (4 runs)</title></circle>
<circle cx="704.0" cy="374.0" r="3.5" fill="#2563eb"><title>2026-10-03 ours: 0 (2 runs)</title></circle>
<text x="56" y="402" fill="#374151" font-weight="600">Flows that failed at least once, per run</text>
<line x1="56" x2="704" y1="558.0" y2="558.0" stroke="#e5e7eb"/><text x="50" y="562.0" text-anchor="end" fill="#6b7280">0</text>
<line x1="56" x2="704" y1="520.5" y2="520.5" stroke="#e5e7eb"/><text x="50" y="524.5" text-anchor="end" fill="#6b7280">1.2</text>
<line x1="56" x2="704" y1="483.0" y2="483.0" stroke="#e5e7eb"/><text x="50" y="487.0" text-anchor="end" fill="#6b7280">2.5</text>
<line x1="56" x2="704" y1="445.5" y2="445.5" stroke="#e5e7eb"/><text x="50" y="449.5" text-anchor="end" fill="#6b7280">3.8</text>
<line x1="56" x2="704" y1="408.0" y2="408.0" stroke="#e5e7eb"/><text x="50" y="412.0" text-anchor="end" fill="#6b7280">5</text>
<polyline fill="none" stroke="#9ca3af" stroke-width="2" points="56.0,498.0 64.6,498.0 73.3,558.0 90.6,558.0 99.2,558.0 107.8,498.0 444.8,528.0 453.4,438.0 470.7,528.0 479.4,468.0 496.6,558.0 557.1,558.0 565.8,528.0 574.4,543.0 583.0,558.0 591.7,558.0 609.0,528.0 617.6,498.0 626.2,543.0 634.9,558.0 643.5,528.0 660.8,537.9 669.4,558.0 678.1,558.0 686.7,558.0 695.4,543.0 704.0,483.0"/>
<circle cx="56.0" cy="498.0" r="3.5" fill="#9ca3af"><title>2026-07-20 upstream: 2 (1 runs)</title></circle>
<circle cx="64.6" cy="498.0" r="3.5" fill="#9ca3af"><title>2026-07-21 upstream: 2 (2 runs)</title></circle>
<circle cx="73.3" cy="558.0" r="3.5" fill="#9ca3af"><title>2026-07-22 upstream: 0 (3 runs)</title></circle>
<circle cx="90.6" cy="558.0" r="3.5" fill="#9ca3af"><title>2026-07-24 upstream: 0 (1 runs)</title></circle>
<circle cx="99.2" cy="558.0" r="3.5" fill="#9ca3af"><title>2026-07-25 upstream: 0 (1 runs)</title></circle>
<circle cx="107.8" cy="498.0" r="3.5" fill="#9ca3af"><title>2026-07-26 upstream: 2 (1 runs)</title></circle>
<circle cx="444.8" cy="528.0" r="3.5" fill="#9ca3af"><title>2026-09-03 upstream: 1 (1 runs)</title></circle>
<circle cx="453.4" cy="438.0" r="3.5" fill="#9ca3af"><title>2026-09-04 upstream: 4 (1 runs)</title></circle>
<circle cx="470.7" cy="528.0" r="3.5" fill="#9ca3af"><title>2026-09-06 upstream: 1 (2 runs)</title></circle>
<circle cx="479.4" cy="468.0" r="3.5" fill="#9ca3af"><title>2026-09-07 upstream: 3 (1 runs)</title></circle>
<circle cx="496.6" cy="558.0" r="3.5" fill="#9ca3af"><title>2026-09-09 upstream: 0 (1 runs)</title></circle>
<circle cx="557.1" cy="558.0" r="3.5" fill="#9ca3af"><title>2026-09-16 upstream: 0 (1 runs)</title></circle>
<circle cx="565.8" cy="528.0" r="3.5" fill="#9ca3af"><title>2026-09-17 upstream: 1 (1 runs)</title></circle>
<circle cx="574.4" cy="543.0" r="3.5" fill="#9ca3af"><title>2026-09-18 upstream: 0.5 (2 runs)</title></circle>
<circle cx="583.0" cy="558.0" r="3.5" fill="#9ca3af"><title>2026-09-19 upstream: 0 (1 runs)</title></circle>
<circle cx="591.7" cy="558.0" r="3.5" fill="#9ca3af"><title>2026-09-20 upstream: 0 (1 runs)</title></circle>
<circle cx="609.0" cy="528.0" r="3.5" fill="#9ca3af"><title>2026-09-22 upstream: 1 (2 runs)</title></circle>
<circle cx="617.6" cy="498.0" r="3.5" fill="#9ca3af"><title>2026-09-23 upstream: 2 (1 runs)</title></circle>
<circle cx="626.2" cy="543.0" r="3.5" fill="#9ca3af"><title>2026-09-24 upstream: 0.5 (2 runs)</title></circle>
<circle cx="634.9" cy="558.0" r="3.5" fill="#9ca3af"><title>2026-09-25 upstream: 0 (2 runs)</title></circle>
<circle cx="643.5" cy="528.0" r="3.5" fill="#9ca3af"><title>2026-09-26 upstream: 1 (1 runs)</title></circle>
<circle cx="660.8" cy="537.9" r="3.5" fill="#9ca3af"><title>2026-09-28 upstream: 0.7 (3 runs)</title></circle>
<circle cx="669.4" cy="558.0" r="3.5" fill="#9ca3af"><title>2026-09-29 upstream: 0 (1 runs)</title></circle>
<circle cx="678.1" cy="558.0" r="3.5" fill="#9ca3af"><title>2026-09-30 upstream: 0 (2 runs)</title></circle>
<circle cx="686.7" cy="558.0" r="3.5" fill="#9ca3af"><title>2026-10-01 upstream: 0 (1 runs)</title></circle>
<circle cx="695.4" cy="543.0" r="3.5" fill="#9ca3af"><title>2026-10-02 upstream: 0.5 (2 runs)</title></circle>
<circle cx="704.0" cy="483.0" r="3.5" fill="#9ca3af"><title>2026-10-03 upstream: 2.5 (2 runs)</title></circle>
<polyline fill="none" stroke="#2563eb" stroke-width="2" points="686.7,513.0 695.4,513.0 704.0,528.0"/>
<circle cx="686.7" cy="513.0" r="3.5" fill="#2563eb"><title>2026-10-01 ours: 1.5 (2 runs)</title></circle>
<circle cx="695.4" cy="513.0" r="3.5" fill="#2563eb"><title>2026-10-02 ours: 1.5 (4 runs)</title></circle>
<circle cx="704.0" cy="528.0" r="3.5" fill="#2563eb"><title>2026-10-03 ours: 1 (2 runs)</title></circle>
<text x="56.0" y="574" text-anchor="middle" fill="#6b7280">07-20</text>
<text x="90.6" y="574" text-anchor="middle" fill="#6b7280">07-24</text>
<text x="444.8" y="574" text-anchor="middle" fill="#6b7280">09-03</text>
<text x="479.4" y="574" text-anchor="middle" fill="#6b7280">09-07</text>
<text x="565.8" y="574" text-anchor="middle" fill="#6b7280">09-17</text>
<text x="591.7" y="574" text-anchor="middle" fill="#6b7280">09-20</text>
<text x="626.2" y="574" text-anchor="middle" fill="#6b7280">09-24</text>
<text x="660.8" y="574" text-anchor="middle" fill="#6b7280">09-28</text>
<text x="686.7" y="574" text-anchor="middle" fill="#6b7280">10-01</text>
</svg>
