<svg xmlns="http://www.w3.org/2000/svg" width="720" height="602" font-family="-apple-system,Segoe UI,Helvetica,Arial,sans-serif" font-size="11">
<rect width="100%" height="100%" fill="#ffffff"/>
<text x="56" y="18" font-size="14" font-weight="600" fill="#111827">react-native ios debug</text>
<circle cx="490" cy="14" r="4" fill="#2563eb"/><text x="498" y="18" fill="#374151">ours (maestro-runner)</text><circle cx="625" cy="14" r="4" fill="#9ca3af"/><text x="633" y="18" fill="#374151">upstream</text>
<text x="56" y="34" fill="#374151" font-weight="600">Test time per run (min, median)</text>
<line x1="56" x2="704" y1="190.0" y2="190.0" stroke="#e5e7eb"/><text x="50" y="194.0" text-anchor="end" fill="#6b7280">0</text>
<line x1="56" x2="704" y1="152.5" y2="152.5" stroke="#e5e7eb"/><text x="50" y="156.5" text-anchor="end" fill="#6b7280">125</text>
<line x1="56" x2="704" y1="115.0" y2="115.0" stroke="#e5e7eb"/><text x="50" y="119.0" text-anchor="end" fill="#6b7280">250</text>
<line x1="56" x2="704" y1="77.5" y2="77.5" stroke="#e5e7eb"/><text x="50" y="81.5" text-anchor="end" fill="#6b7280">375</text>
<line x1="56" x2="704" y1="40.0" y2="40.0" stroke="#e5e7eb"/><text x="50" y="44.0" text-anchor="end" fill="#6b7280">500</text>
<polyline fill="none" stroke="#9ca3af" stroke-width="2" points="56.0,165.5 120.8,156.9 185.6,158.9 250.4,164.5 315.2,165.1 380.0,163.8 574.4,165.0 639.2,165.4 704.0,141.9"/>
<circle cx="56.0" cy="165.5" r="3.5" fill="#9ca3af"><title>2026-09-28 upstream: 82 (11 runs)</title></circle>
<circle cx="120.8" cy="156.9" r="3.5" fill="#9ca3af"><title>2026-09-29 upstream: 110 (12 runs)</title></circle>
<circle cx="185.6" cy="158.9" r="3.5" fill="#9ca3af"><title>2026-09-30 upstream: 104 (7 runs)</title></circle>
<circle cx="250.4" cy="164.5" r="3.5" fill="#9ca3af"><title>2026-10-01 upstream: 85 (13 runs)</title></circle>
<circle cx="315.2" cy="165.1" r="3.5" fill="#9ca3af"><title>2026-10-02 upstream: 83 (15 runs)</title></circle>
<circle cx="380.0" cy="163.8" r="3.5" fill="#9ca3af"><title>2026-10-03 upstream: 87 (1 runs)</title></circle>
<circle cx="574.4" cy="165.0" r="3.5" fill="#9ca3af"><title>2026-10-06 upstream: 83 (13 runs)</title></circle>
<circle cx="639.2" cy="165.4" r="3.5" fill="#9ca3af"><title>2026-10-07 upstream: 82 (17 runs)</title></circle>
<circle cx="704.0" cy="141.9" r="3.5" fill="#9ca3af"><title>2026-10-08 upstream: 160 (19 runs)</title></circle>
<polyline fill="none" stroke="#2563eb" stroke-width="2" points="315.2,183.2 380.0,184.2 444.8,183.4 509.6,182.9 574.4,181.8 639.2,121.0 704.0,182.5"/>
<circle cx="315.2" cy="183.2" r="3.5" fill="#2563eb"><title>2026-10-02 ours: 22 (1 runs)</title></circle>
<circle cx="380.0" cy="184.2" r="3.5" fill="#2563eb"><title>2026-10-03 ours: 19 (1 runs)</title></circle>
<circle cx="444.8" cy="183.4" r="3.5" fill="#2563eb"><title>2026-10-04 ours: 22 (10 runs)</title></circle>
<circle cx="509.6" cy="182.9" r="3.5" fill="#2563eb"><title>2026-10-05 ours: 24 (9 runs)</title></circle>
<circle cx="574.4" cy="181.8" r="3.5" fill="#2563eb"><title>2026-10-06 ours: 27 (9 runs)</title></circle>
<circle cx="639.2" cy="121.0" r="3.5" fill="#2563eb"><title>2026-10-07 ours: 230 (5 runs)</title></circle>
<circle cx="704.0" cy="182.5" r="3.5" fill="#2563eb"><title>2026-10-08 ours: 25 (8 runs)</title></circle>
<text x="56" y="218" fill="#374151" font-weight="600">Runs where every flow passed first time (%)</text>
<line x1="56" x2="704" y1="374.0" y2="374.0" stroke="#e5e7eb"/><text x="50" y="378.0" text-anchor="end" fill="#6b7280">0</text>
<line x1="56" x2="704" y1="336.5" y2="336.5" stroke="#e5e7eb"/><text x="50" y="340.5" text-anchor="end" fill="#6b7280">25</text>
<line x1="56" x2="704" y1="299.0" y2="299.0" stroke="#e5e7eb"/><text x="50" y="303.0" text-anchor="end" fill="#6b7280">50</text>
<line x1="56" x2="704" y1="261.5" y2="261.5" stroke="#e5e7eb"/><text x="50" y="265.5" text-anchor="end" fill="#6b7280">75</text>
<line x1="56" x2="704" y1="224.0" y2="224.0" stroke="#e5e7eb"/><text x="50" y="228.0" text-anchor="end" fill="#6b7280">100</text>
<polyline fill="none" stroke="#9ca3af" stroke-width="2" points="56.0,347.0 120.8,348.5 185.6,374.0 250.4,351.5 315.2,344.0 380.0,374.0 574.4,327.5 639.2,365.0 704.0,335.0"/>
<circle cx="56.0" cy="347.0" r="3.5" fill="#9ca3af"><title>2026-09-28 upstream: 18 (11 runs)</title></circle>
<circle cx="120.8" cy="348.5" r="3.5" fill="#9ca3af"><title>2026-09-29 upstream: 17 (12 runs)</title></circle>
<circle cx="185.6" cy="374.0" r="3.5" fill="#9ca3af"><title>2026-09-30 upstream: 0 (7 runs)</title></circle>
<circle cx="250.4" cy="351.5" r="3.5" fill="#9ca3af"><title>2026-10-01 upstream: 15 (13 runs)</title></circle>
<circle cx="315.2" cy="344.0" r="3.5" fill="#9ca3af"><title>2026-10-02 upstream: 20 (15 runs)</title></circle>
<circle cx="380.0" cy="374.0" r="3.5" fill="#9ca3af"><title>2026-10-03 upstream: 0 (1 runs)</title></circle>
<circle cx="574.4" cy="327.5" r="3.5" fill="#9ca3af"><title>2026-10-06 upstream: 31 (13 runs)</title></circle>
<circle cx="639.2" cy="365.0" r="3.5" fill="#9ca3af"><title>2026-10-07 upstream: 6 (17 runs)</title></circle>
<circle cx="704.0" cy="335.0" r="3.5" fill="#9ca3af"><title>2026-10-08 upstream: 26 (19 runs)</title></circle>
<polyline fill="none" stroke="#2563eb" stroke-width="2" points="315.2,224.0 380.0,224.0 444.8,254.0 509.6,224.0 574.4,257.0 639.2,344.0 704.0,261.5"/>
<circle cx="315.2" cy="224.0" r="3.5" fill="#2563eb"><title>2026-10-02 ours: 100 (1 runs)</title></circle>
<circle cx="380.0" cy="224.0" r="3.5" fill="#2563eb"><title>2026-10-03 ours: 100 (1 runs)</title></circle>
<circle cx="444.8" cy="254.0" r="3.5" fill="#2563eb"><title>2026-10-04 ours: 80 (10 runs)</title></circle>
<circle cx="509.6" cy="224.0" r="3.5" fill="#2563eb"><title>2026-10-05 ours: 100 (9 runs)</title></circle>
<circle cx="574.4" cy="257.0" r="3.5" fill="#2563eb"><title>2026-10-06 ours: 78 (9 runs)</title></circle>
<circle cx="639.2" cy="344.0" r="3.5" fill="#2563eb"><title>2026-10-07 ours: 20 (5 runs)</title></circle>
<circle cx="704.0" cy="261.5" r="3.5" fill="#2563eb"><title>2026-10-08 ours: 75 (8 runs)</title></circle>
<text x="56" y="402" fill="#374151" font-weight="600">Flows that failed at least once, per run</text>
<line x1="56" x2="704" y1="558.0" y2="558.0" stroke="#e5e7eb"/><text x="50" y="562.0" text-anchor="end" fill="#6b7280">0</text>
<line x1="56" x2="704" y1="520.5" y2="520.5" stroke="#e5e7eb"/><text x="50" y="524.5" text-anchor="end" fill="#6b7280">5</text>
<line x1="56" x2="704" y1="483.0" y2="483.0" stroke="#e5e7eb"/><text x="50" y="487.0" text-anchor="end" fill="#6b7280">10</text>
<line x1="56" x2="704" y1="445.5" y2="445.5" stroke="#e5e7eb"/><text x="50" y="449.5" text-anchor="end" fill="#6b7280">15</text>
<line x1="56" x2="704" y1="408.0" y2="408.0" stroke="#e5e7eb"/><text x="50" y="412.0" text-anchor="end" fill="#6b7280">20</text>
<polyline fill="none" stroke="#9ca3af" stroke-width="2" points="56.0,545.0 120.8,544.9 185.6,545.2 250.4,549.9 315.2,548.5 380.0,543.0 574.4,551.1 639.2,547.4 704.0,546.1"/>
<circle cx="56.0" cy="545.0" r="3.5" fill="#9ca3af"><title>2026-09-28 upstream: 1.7 (11 runs)</title></circle>
<circle cx="120.8" cy="544.9" r="3.5" fill="#9ca3af"><title>2026-09-29 upstream: 1.8 (12 runs)</title></circle>
<circle cx="185.6" cy="545.2" r="3.5" fill="#9ca3af"><title>2026-09-30 upstream: 1.7 (7 runs)</title></circle>
<circle cx="250.4" cy="549.9" r="3.5" fill="#9ca3af"><title>2026-10-01 upstream: 1.1 (13 runs)</title></circle>
<circle cx="315.2" cy="548.5" r="3.5" fill="#9ca3af"><title>2026-10-02 upstream: 1.3 (15 runs)</title></circle>
<circle cx="380.0" cy="543.0" r="3.5" fill="#9ca3af"><title>2026-10-03 upstream: 2 (1 runs)</title></circle>
<circle cx="574.4" cy="551.1" r="3.5" fill="#9ca3af"><title>2026-10-06 upstream: 0.9 (13 runs)</title></circle>
<circle cx="639.2" cy="547.4" r="3.5" fill="#9ca3af"><title>2026-10-07 upstream: 1.4 (17 runs)</title></circle>
<circle cx="704.0" cy="546.1" r="3.5" fill="#9ca3af"><title>2026-10-08 upstream: 1.6 (19 runs)</title></circle>
<polyline fill="none" stroke="#2563eb" stroke-width="2" points="315.2,558.0 380.0,558.0 444.8,556.5 509.6,558.0 574.4,555.5 639.2,442.5 704.0,556.1"/>
<circle cx="315.2" cy="558.0" r="3.5" fill="#2563eb"><title>2026-10-02 ours: 0 (1 runs)</title></circle>
<circle cx="380.0" cy="558.0" r="3.5" fill="#2563eb"><title>2026-10-03 ours: 0 (1 runs)</title></circle>
<circle cx="444.8" cy="556.5" r="3.5" fill="#2563eb"><title>2026-10-04 ours: 0.2 (10 runs)</title></circle>
<circle cx="509.6" cy="558.0" r="3.5" fill="#2563eb"><title>2026-10-05 ours: 0 (9 runs)</title></circle>
<circle cx="574.4" cy="555.5" r="3.5" fill="#2563eb"><title>2026-10-06 ours: 0.3 (9 runs)</title></circle>
<circle cx="639.2" cy="442.5" r="3.5" fill="#2563eb"><title>2026-10-07 ours: 15 (5 runs)</title></circle>
<circle cx="704.0" cy="556.1" r="3.5" fill="#2563eb"><title>2026-10-08 ours: 0.2 (8 runs)</title></circle>
<text x="56.0" y="574" text-anchor="middle" fill="#6b7280">09-28</text>
<text x="120.8" y="574" text-anchor="middle" fill="#6b7280">09-29</text>
<text x="185.6" y="574" text-anchor="middle" fill="#6b7280">09-30</text>
<text x="250.4" y="574" text-anchor="middle" fill="#6b7280">10-01</text>
<text x="315.2" y="574" text-anchor="middle" fill="#6b7280">10-02</text>
<text x="380.0" y="574" text-anchor="middle" fill="#6b7280">10-03</text>
<text x="444.8" y="574" text-anchor="middle" fill="#6b7280">10-04</text>
<text x="509.6" y="574" text-anchor="middle" fill="#6b7280">10-05</text>
<text x="574.4" y="574" text-anchor="middle" fill="#6b7280">10-06</text>
<text x="639.2" y="574" text-anchor="middle" fill="#6b7280">10-07</text>
<text x="704.0" y="574" text-anchor="middle" fill="#6b7280">10-08</text>
</svg>
